ffmpeg version 4.2.7-0ubuntu0.1 Copyright (c) 2000-2022 the FFmpeg developers
  built with gcc 9 (Ubuntu 9.4.0-1ubuntu1~20.04.1)
  configuration: --prefix=/usr --extra-version=0ubuntu0.1 --toolchain=hardened --libdir=/usr/lib/x86_64-linux-gnu --incdir=/usr/include/x86_64-linux-gnu --arch=amd64 --enable-gpl --disable-stripping --enable-avresample --disable-filter=resample --enable-avisynth --enable-gnutls --enable-ladspa --enable-libaom --enable-libass --enable-libbluray --enable-libbs2b --enable-libcaca --enable-libcdio --enable-libcodec2 --enable-libflite --enable-libfontconfig --enable-libfreetype --enable-libfribidi --enable-libgme --enable-libgsm --enable-libjack --enable-libmp3lame --enable-libmysofa --enable-libopenjpeg --enable-libopenmpt --enable-libopus --enable-libpulse --enable-librsvg --enable-librubberband --enable-libshine --enable-libsnappy --enable-libsoxr --enable-libspeex --enable-libssh --enable-libtheora --enable-libtwolame --enable-libvidstab --enable-libvorbis --enable-libvpx --enable-libwavpack --enable-libwebp --enable-libx265 --enable-libxml2 --enable-libxvid --enable-libzmq --enable-libzvbi --enable-lv2 --enable-omx --enable-openal --enable-opencl --enable-opengl --enable-sdl2 --enable-libdc1394 --enable-libdrm --enable-libiec61883 --enable-nvenc --enable-chromaprint --enable-frei0r --enable-libx264 --enable-shared
  libavutil      56. 31.100 / 56. 31.100
  libavcodec     58. 54.100 / 58. 54.100
  libavformat    58. 29.100 / 58. 29.100
  libavdevice    58.  8.100 / 58.  8.100
  libavfilter     7. 57.100 /  7. 57.100
  libavresample   4.  0.  0 /  4.  0.  0
  libswscale      5.  5.100 /  5.  5.100
  libswresample   3.  5.100 /  3.  5.100
  libpostproc    55.  5.100 / 55.  5.100
Routing option strict to both codec and muxer layer
[h264 @ 0x560a72c6fe00] Reinit context to 640x352, pix_fmt: yuv420p
Input #0, mov,mp4,m4a,3gp,3g2,mj2, from '/var/www/html/project/media/video/original/VID-20230517-WA0006.mp4':
  Metadata:
    major_brand     : mp42
    minor_version   : 0
    compatible_brands: mp42isom
  Duration: 00:00:13.12, start: 0.000000, bitrate: 2128 kb/s
    Stream #0:0(und): Video: h264 (High), 1 reference frame (avc1 / 0x31637661), yuv420p(tv, unknown/bt470bg/unknown, left), 640x352, 2004 kb/s, 29.60 fps, 29.58 tbr, 90k tbn, 180k tbc (default)
    Stream #0:1(und): Audio: aac (LC) (mp4a / 0x6134706D), 48000 Hz, mono, fltp, 128 kb/s (default)
Input #1, png_pipe, from '/var/www/html/project/static/images/templates/logo.png':
  Duration: N/A, bitrate: N/A
    Stream #1:0: Video: png, 1 reference frame, rgba(pc), 1920x1080 [SAR 2835:2835 DAR 16:9], 25 tbr, 25 tbn, 25 tbc
[Parsed_scale_0 @ 0x560a72d71e40] w:1280 h:720 flags:'bilinear' interl:0
[Parsed_scale_2 @ 0x560a72d72380] w:1280 h:720 flags:'bilinear' interl:0
Stream mapping:
  Stream #0:0 (h264) -> scale (graph 0)
  Stream #1:0 (png) -> scale (graph 0)
  overlay (graph 0) -> Stream #0:0 (libx264)
  Stream #0:1 -> #0:1 (aac (native) -> aac (native))
Press [q] to stop, [?] for help
[h264 @ 0x560a72d53500] Reinit context to 640x352, pix_fmt: yuv420p
[graph_1_in_0_1 @ 0x560a72d74f40] tb:1/48000 samplefmt:fltp samplerate:48000 chlayout:0x4
[Parsed_scale_0 @ 0x560a7325e340] w:1280 h:720 flags:'bilinear' interl:0
[Parsed_scale_2 @ 0x560a73261e00] w:1280 h:720 flags:'bilinear' interl:0
[graph 0 input from stream 0:0 @ 0x560a73264240] w:640 h:352 pixfmt:yuv420p tb:1/90000 fr:355/12 sar:0/1 sws_param:flags=2
[graph 0 input from stream 1:0 @ 0x560a73265200] w:1920 h:1080 pixfmt:rgba tb:1/25 fr:25/1 sar:2835/2835 sws_param:flags=2
[Parsed_scale_0 @ 0x560a7325e340] w:640 h:352 fmt:yuv420p sar:0/1 -> w:1280 h:720 fmt:yuv420p sar:0/1 flags:0x2
[Parsed_setsar_1 @ 0x560a732612c0] w:1280 h:720 sar:0/1 dar:16/9 -> sar:1/1 dar:16/9
[Parsed_scale_2 @ 0x560a73261e00] w:1920 h:1080 fmt:rgba sar:2835/2835 -> w:1280 h:720 fmt:yuva420p sar:1/1 flags:0x2
[Parsed_setsar_3 @ 0x560a732628c0] w:1280 h:720 sar:1/1 dar:16/9 -> sar:1/1 dar:16/9
[Parsed_overlay_4 @ 0x560a732634c0] main w:1280 h:720 fmt:yuv420p overlay w:1280 h:720 fmt:yuva420p
[Parsed_overlay_4 @ 0x560a732634c0] [framesync @ 0x560a732635e8] Selected 1/90000 time base
[Parsed_overlay_4 @ 0x560a732634c0] [framesync @ 0x560a732635e8] Sync level 2
[libx264 @ 0x560a72d08240] using SAR=1/1
[libx264 @ 0x560a72d08240] using cpu capabilities: MMX2 SSE2Fast SSSE3 SSE4.2 AVX FMA3 BMI2 AVX2
[libx264 @ 0x560a72d08240] profile High, level 3.1
[libx264 @ 0x560a72d08240] 264 - core 155 r2917 0a84d98 - H.264/MPEG-4 AVC codec - Copyleft 2003-2018 - http://www.videolan.org/x264.html - options: cabac=1 ref=1 deblock=1:0:0 analyse=0x3:0x113 me=hex subme=2 psy=1 psy_rd=1.00:0.00 mixed_ref=0 me_range=16 chroma_me=1 trellis=0 8x8dct=1 cqm=0 deadzone=21,11 fast_pskip=1 chroma_qp_offset=0 threads=22 lookahead_threads=5 sliced_threads=0 nr=0 decimate=1 interlaced=0 bluray_compat=0 constrained_intra=0 bframes=3 b_pyramid=2 b_adapt=1 b_bias=0 direct=1 weightb=1 open_gop=0 weightp=1 keyint=250 keyint_min=25 scenecut=40 intra_refresh=0 rc_lookahead=10 rc=crf mbtree=1 crf=18.0 qcomp=0.60 qpmin=0 qpmax=69 qpstep=4 ip_ratio=1.40 aq=1:1.00
Output #0, mp4, to '/var/www/html/project/media/video/watermarks/VID-20230517-WA0006.mp4':
  Metadata:
    major_brand     : mp42
    minor_version   : 0
    compatible_brands: mp42isom
    encoder         : Lavf58.29.100
    Stream #0:0: Video: h264 (libx264), 1 reference frame (avc1 / 0x31637661), yuv420p, 1280x720 [SAR 1:1 DAR 16:9], q=-1--1, 29.58 fps, 11360 tbn, 29.58 tbc (default)
    Metadata:
      encoder         : Lavc58.54.100 libx264
    Side data:
      cpb: bitrate max/min/avg: 0/0/0 buffer size: 0 vbv_delay: -1
    Stream #0:1(und): Audio: aac (LC) (mp4a / 0x6134706D), 48000 Hz, mono, fltp, delay 1024, 69 kb/s (default)
    Metadata:
      encoder         : Lavc58.54.100 aac
[Parsed_overlay_4 @ 0x560a732634c0] [framesync @ 0x560a732635e8] Sync level 0
No more output streams to write to, finishing.
frame=  387 fps= 85 q=-1.0 Lsize=   11282kB time=00:00:13.12 bitrate=7043.5kbits/s speed=2.88x    
[AVIOContext @ 0x560a72c6e0c0] Statistics: 0 seeks, 9 writeouts
video:11142kB audio:126kB subtitle:0kB other streams:0kB global headers:0kB muxing overhead: 0.126991%
Input file #0 (/var/www/html/project/media/video/original/VID-20230517-WA0006.mp4):
  Input stream #0:0 (video): 387 packets read (3275524 bytes); 387 frames decoded; 
  Input stream #0:1 (audio): 615 packets read (209968 bytes); 615 frames decoded (629760 samples); 
  Total: 1002 packets (3485492 bytes) demuxed
Input file #1 (/var/www/html/project/static/images/templates/logo.png):
  Input stream #1:0 (video): 1 packets read (111578 bytes); 1 frames decoded; 
  Total: 1 packets (111578 bytes) demuxed
Output file #0 (/var/www/html/project/media/video/watermarks/VID-20230517-WA0006.mp4):
  Output stream #0:0 (video): 387 frames encoded; 387 packets muxed (11408899 bytes); 
  Output stream #0:1 (audio): 615 frames encoded (629760 samples); 616 packets muxed (128952 bytes); 
  Total: 1003 packets (11537851 bytes) muxed
[AVIOContext @ 0x560a72d16880] Statistics: 2 seeks, 48 writeouts
[libx264 @ 0x560a72d08240] frame I:2     Avg QP:18.35  size: 99482
[libx264 @ 0x560a72d08240] frame P:191   Avg QP:19.81  size: 41004
[libx264 @ 0x560a72d08240] frame B:194   Avg QP:22.61  size: 17410
[libx264 @ 0x560a72d08240] consecutive B-frames: 31.0%  2.1% 13.2% 53.7%
[libx264 @ 0x560a72d08240] mb I  I16..4: 10.3% 25.6% 64.1%
[libx264 @ 0x560a72d08240] mb P  I16..4:  7.2% 13.1%  3.3%  P16..4: 33.2% 20.1% 16.4%  0.0%  0.0%    skip: 6.7%
[libx264 @ 0x560a72d08240] mb B  I16..4:  2.5%  3.6%  0.5%  B16..8: 31.0% 14.0%  2.6%  direct:20.2%  skip:25.6%  L0:38.7% L1:36.6% BI:24.7%
[libx264 @ 0x560a72d08240] 8x8 transform intra:54.3% inter:37.1%
[libx264 @ 0x560a72d08240] coded y,uvDC,uvAC intra: 56.9% 43.1% 11.7% inter: 35.9% 29.1% 4.4%
[libx264 @ 0x560a72d08240] i16 v,h,dc,p: 37% 35% 22%  6%
[libx264 @ 0x560a72d08240] i8 v,h,dc,ddl,ddr,vr,hd,vl,hu: 16% 36% 21%  4%  4%  3%  6%  3%  7%
[libx264 @ 0x560a72d08240] i4 v,h,dc,ddl,ddr,vr,hd,vl,hu: 20% 30% 15%  5%  7%  5%  8%  4%  6%
[libx264 @ 0x560a72d08240] i8c dc,h,v,p: 48% 29% 18%  4%
[libx264 @ 0x560a72d08240] Weighted P-Frames: Y:3.1% UV:1.6%
[libx264 @ 0x560a72d08240] kb/s:6976.60
[aac @ 0x560a72d53080] Qavg: 993.095
[AVIOContext @ 0x560a72c77040] Statistics: 3491639 bytes read, 0 seeks
[AVIOContext @ 0x560a72d7cac0] Statistics: 111578 bytes read, 0 seeks
